<svg xmlns="http://www.w3.org/2000/svg" viewBox="0 0 48 48"><path d="M8 19h3v10H8zm32.2 6.5h-5.3c-.8 0-1.5-.7-1.5-1.5s.7-1.5 1.5-1.5h5.3c.8 0 1.5.7 1.5 1.5s-.6 1.5-1.5 1.5zM32.9 18c-.5 0-1-.3-1.3-.8-.4-.7-.2-1.6.5-2l4.6-2.6c.7-.4 1.6-.2 2 .5.4.7.2 1.6-.5 2l-4.6 2.6c-.2.3-.4.3-.7.3zm-5.4-5.3c-.3 0-.5-.1-.7-.2-.7-.4-1-1.3-.5-2l2.6-4.6c.4-.7 1.3-1 2-.5.7.4 1 1.3.5 2L28.8 12c-.3.4-.8.7-1.3.7zm10.1 22.8c-.3 0-.5-.1-.7-.2l-4.6-2.6c-.7-.4-1-1.3-.5-2 .4-.7 1.3-1 2-.5l4.6 2.6c.7.4 1 1.3.5 2-.3.5-.8.7-1.3.7zm-7.3 7.4c-.5 0-1-.3-1.3-.8l-2.6-4.6c-.4-.7-.2-1.6.5-2 .7-.4 1.6-.2 2 .5l2.6 4.6c.4.7.2 1.6-.5 2-.2.2-.5.3-.7.3zM19.7 15.3c-2.7 0-5.1 1.2-6.7 3.2v11c1.6 1.9 4 3.2 6.7 3.2 4.8 0 8.7-3.9 8.7-8.7s-3.9-8.7-8.7-8.7z"/></svg>